<?xml version="1.0" encoding="UTF-8" standalone="no"?>
<!DOCTYPE svg PUBLIC "-//W3C//DTD SVG 1.1//EN" "http://www.w3.org/Graphics/SVG/1.1/DTD/svg11.dtd">
<svg version="1.1" xmlns="http://www.w3.org/2000/svg" xmlns:xlink="http://www.w3.org/1999/xlink" preserveAspectRatio="xMidYMid meet" viewBox="0 0 1024 1024" width="1024" height="1024"><defs><path d="M1024 512C1024 794.58 794.58 1024 512 1024C229.42 1024 0 794.58 0 512C0 229.42 229.42 0 512 0C794.58 0 1024 229.42 1024 512Z" id="e1JTA3XDn"></path><path d="M1012 512C1012 787.96 787.96 1012 512 1012C236.04 1012 12 787.96 12 512C12 236.04 236.04 12 512 12C787.96 12 1012 236.04 1012 512Z" id="a1euUi5MAf"></path><radialGradient id="gradientivfCPEO5t" gradientUnits="userSpaceOnUse" cx="512" cy="12" dx="512" dy="1012" r="1000"><stop style="stop-color: #ff0000;stop-opacity: 1" offset="0%"></stop><stop style="stop-color: #010000;stop-opacity: 1" offset="100%"></stop></radialGradient><path d="M807.21 108.53L822.5 120.19L837.32 132.42L851.65 145.2L865.48 158.52L878.8 172.35L891.58 186.68L903.81 201.5L915.47 216.79L926.56 232.53L937.04 248.71L946.91 265.3L956.15 282.31L964.75 299.7L972.68 317.46L979.93 335.58L986.49 354.03L992.34 372.82L997.46 391.91L1001.83 411.29L1005.45 430.95L1008.29 450.86L1010.34 471.02L1011.58 491.41L1012 512L1011.58 532.6L1010.34 552.99L1008.29 573.15L1005.45 593.06L1001.83 612.72L997.46 632.1L992.34 651.19L986.49 669.97L979.93 688.43L972.68 706.55L964.75 724.31L956.15 741.7L946.91 758.7L937.04 775.3L926.56 791.48L915.47 807.22L903.81 822.5L891.58 837.32L878.8 851.66L865.48 865.49L851.65 878.8L837.32 891.58L822.5 903.81L807.21 915.48L791.47 926.56L775.29 937.05L758.7 946.92L749.51 951.91L528.26 730.64L527.58 729.98L526.87 729.36L526.15 728.77L525.41 728.22L524.66 727.7L523.88 727.21L523.1 726.75L522.3 726.33L521.48 725.95L520.66 725.59L519.82 725.27L518.98 724.99L518.13 724.74L517.27 724.52L516.4 724.33L515.53 724.18L514.66 724.06L513.78 723.98L512.9 723.93L512.01 723.91L511.13 723.93L510.48 723.97L939.95 556.95L940.83 556.59L941.68 556.2L942.51 555.77L943.32 555.32L944.1 554.84L944.86 554.33L945.59 553.79L946.3 553.23L946.98 552.64L947.63 552.03L948.26 551.39L948.86 550.73L949.44 550.05L949.99 549.35L950.5 548.64L950.99 547.9L951.45 547.15L951.88 546.38L952.29 545.59L952.66 544.79L953 543.98L953.3 543.15L953.58 542.31L953.83 541.46L954.04 540.6L954.22 539.74L954.36 538.86L954.48 537.98L954.55 537.09L954.6 536.2L954.61 535.3L954.58 534.4L954.52 533.5L954.42 532.6L954.28 531.69L954.11 530.79L953.9 529.89L953.65 528.99L953.37 528.1L953.04 527.21L784.04 92.63L791.47 97.44L807.21 108.53ZM552.98 13.66L573.14 15.71L593.05 18.55L610.94 21.84L182.85 188.32L181.98 188.68L181.12 189.07L180.29 189.5L179.49 189.95L178.71 190.43L177.95 190.94L177.22 191.48L176.51 192.04L175.83 192.63L175.17 193.24L174.54 193.88L173.94 194.54L173.37 195.21L172.82 195.91L172.3 196.63L171.81 197.37L171.35 198.12L170.92 198.89L170.52 199.68L170.15 200.48L169.81 201.29L169.5 202.12L169.23 202.96L168.98 203.81L168.77 204.66L168.59 205.53L168.44 206.41L168.33 207.29L168.25 208.18L168.21 209.07L168.2 209.97L168.23 210.87L168.29 211.77L168.39 212.67L168.52 213.57L168.7 214.48L168.91 215.38L169.15 216.28L169.44 217.17L169.77 218.06L377.09 751.19L377.45 752.06L377.84 752.91L378.27 753.74L378.72 754.55L379.2 755.33L379.71 756.09L380.25 756.82L380.81 757.53L381.4 758.21L382.01 758.87L382.65 759.49L383.31 760.1L383.98 760.67L384.68 761.22L385.4 761.74L386.14 762.22L386.89 762.69L387.66 763.12L388.45 763.52L389.25 763.89L390.06 764.23L390.89 764.54L391.73 764.81L392.58 765.06L393.43 765.27L394.3 765.45L395.18 765.6L396.06 765.71L396.95 765.79L397.84 765.83L398.74 765.84L399.64 765.81L400.54 765.75L401.44 765.65L402.34 765.51L403.25 765.34L404.15 765.13L405.05 764.88L405.94 764.6L406.83 764.27L497.66 728.95L497.15 729.36L496.45 729.98L495.77 730.64L274.48 951.91L265.3 946.92L248.7 937.05L232.52 926.56L216.78 915.48L201.5 903.81L186.68 891.58L172.34 878.8L158.51 865.49L145.2 851.66L132.42 837.32L120.19 822.5L108.52 807.22L97.44 791.48L86.95 775.3L77.08 758.7L67.84 741.7L59.25 724.31L51.32 706.55L44.06 688.43L37.51 669.97L31.66 651.19L26.54 632.1L22.16 612.72L18.55 593.06L15.71 573.15L13.66 552.99L12.41 532.6L12 512L12.41 491.41L13.66 471.02L15.71 450.86L18.55 430.95L22.16 411.29L26.54 391.91L31.66 372.82L37.51 354.03L44.06 335.58L51.32 317.46L59.25 299.7L67.84 282.31L77.08 265.3L86.95 248.71L97.44 232.53L108.52 216.79L120.19 201.5L132.42 186.68L145.2 172.35L158.51 158.52L172.34 145.2L186.68 132.42L201.5 120.19L216.78 108.53L232.52 97.44L248.7 86.96L265.3 77.09L282.3 67.85L299.69 59.25L317.45 51.32L335.57 44.07L354.03 37.51L372.81 31.66L391.9 26.54L411.28 22.17L430.94 18.55L450.86 15.71L471.01 13.66L491.4 12.42L512 12L532.59 12.42L552.98 13.66Z" id="ca7HgIHxI"></path><path d="M616.32 577.19C577.53 612.73 517.28 610.09 481.75 571.3C443.14 529.15 391.67 472.97 353.07 430.82C317.54 392.03 320.18 331.78 358.97 296.25C401.11 257.65 457.3 206.17 499.44 167.57C538.23 132.04 598.48 134.68 634.01 173.47C672.62 215.61 724.09 271.8 762.69 313.94C798.22 352.73 795.58 412.98 756.79 448.51C714.65 487.12 658.46 538.59 616.32 577.19Z" id="aaxyOJQnG"></path><path d="M814.17 626.51C822.24 630.12 825.85 639.58 822.24 647.65C806.48 682.9 765.73 774.02 749.97 809.27C746.36 817.33 736.9 820.95 728.83 817.34C693.59 801.58 602.46 760.83 567.22 745.07C559.15 741.46 555.54 731.99 559.14 723.93C574.9 688.68 615.66 597.56 631.42 562.31C635.03 554.25 644.49 550.63 652.56 554.24C687.8 570 778.93 610.75 814.17 626.51Z" id="cHJreV43"></path></defs><g><g><g><use xlink:href="#e1JTA3XDn" opacity="1" fill="#ffffff" fill-opacity="1"></use></g><g><use xlink:href="#a1euUi5MAf" opacity="1" fill="url(#gradientivfCPEO5t)"></use><use xlink:href="#a1euUi5MAf" opacity="1" fill="#dddddd" fill-opacity="1"></use></g><g><use xlink:href="#ca7HgIHxI" opacity="1" fill="#6f42c1" fill-opacity="1"></use></g><g><use xlink:href="#aaxyOJQnG" opacity="1" fill="#6f42c1" fill-opacity="1"></use></g><g><use xlink:href="#cHJreV43" opacity="1" fill="#6f42c1" fill-opacity="1"></use></g></g></g></svg>