<svg xmlns="http://www.w3.org/2000/svg" xmlns:xlink="http://www.w3.org/1999/xlink" width="1024" height="1024" preserveAspectRatio="xMidYMid meet" version="1.1" viewBox="0 0 1024 1024"><defs><path id="eyIqWLiIE" d="M1024 512C1024 794.58 794.58 1024 512 1024C229.42 1024 0 794.58 0 512C0 229.42 229.42 0 512 0C794.58 0 1024 229.42 1024 512Z"/><path id="a1YEx0O0qC" d="M765.88 165.01L779.03 175.04L791.77 185.56L804.1 196.55L816 208L827.45 219.89L838.44 232.22L848.96 244.96L858.99 258.11L868.52 271.65L877.54 285.56L886.03 299.83L893.97 314.46L901.36 329.41L908.19 344.69L914.42 360.27L920.06 376.14L925.09 392.3L929.49 408.71L933.26 425.38L936.37 442.29L938.81 459.41L940.57 476.75L941.64 494.28L942 511.99L941.64 529.71L940.57 547.24L938.81 564.58L936.37 581.7L933.26 598.61L929.49 615.28L925.09 631.69L920.06 647.85L914.42 663.72L908.19 679.3L901.36 694.58L893.97 709.53L886.03 724.16L877.54 738.43L868.52 752.34L858.99 765.88L848.96 779.03L838.44 791.77L827.45 804.1L816 815.99L804.1 827.44L791.77 838.43L779.03 848.95L765.88 858.98L752.35 868.52L738.43 877.53L724.16 886.02L716.26 890.32L525.99 700.02L525.4 699.46L524.79 698.92L524.17 698.42L523.54 697.94L522.89 697.49L522.22 697.07L521.55 696.68L520.86 696.32L520.16 695.99L519.45 695.68L518.73 695.41L518.01 695.16L517.27 694.94L516.53 694.76L515.79 694.6L515.04 694.47L514.29 694.37L513.53 694.29L512.77 694.25L512.01 694.24L511.26 694.25L510.69 694.28L880.04 550.65L880.8 550.34L881.53 550L882.24 549.64L882.94 549.25L883.61 548.83L884.26 548.39L884.89 547.93L885.5 547.45L886.08 546.94L886.65 546.41L887.19 545.87L887.71 545.3L888.2 544.72L888.67 544.12L889.12 543.5L889.54 542.87L889.93 542.22L890.3 541.56L890.65 540.88L890.97 540.19L891.26 539.49L891.52 538.78L891.76 538.06L891.97 537.33L892.16 536.59L892.31 535.85L892.44 535.09L892.53 534.33L892.6 533.57L892.64 532.8L892.64 532.03L892.62 531.26L892.57 530.48L892.48 529.71L892.37 528.93L892.22 528.15L892.04 527.38L891.82 526.61L891.58 525.84L891.3 525.07L745.96 151.33L752.35 155.47L765.88 165.01ZM547.24 83.42L564.58 85.18L581.71 87.63L597.09 90.46L228.94 233.63L228.18 233.94L227.45 234.28L226.74 234.64L226.04 235.03L225.37 235.44L224.72 235.88L224.09 236.34L223.48 236.83L222.89 237.34L222.33 237.86L221.79 238.41L221.27 238.97L220.78 239.56L220.31 240.16L219.86 240.78L219.44 241.41L219.05 242.06L218.67 242.72L218.33 243.4L218.01 244.08L217.72 244.78L217.45 245.5L217.22 246.22L217.01 246.95L216.82 247.68L216.67 248.43L216.54 249.18L216.45 249.94L216.38 250.71L216.34 251.47L216.33 252.24L216.36 253.02L216.41 253.79L216.5 254.57L216.61 255.35L216.76 256.12L216.94 256.9L217.16 257.67L217.4 258.44L217.68 259.2L395.98 717.69L396.29 718.44L396.63 719.18L396.99 719.89L397.38 720.58L397.8 721.26L398.23 721.91L398.7 722.54L399.18 723.15L399.69 723.73L400.21 724.3L400.76 724.84L401.32 725.35L401.91 725.85L402.51 726.32L403.13 726.76L403.76 727.19L404.41 727.58L405.07 727.95L405.75 728.3L406.44 728.62L407.14 728.91L407.85 729.17L408.57 729.41L409.3 729.62L410.04 729.8L410.78 729.96L411.53 730.08L412.29 730.18L413.06 730.25L413.82 730.29L414.6 730.29L415.37 730.27L416.14 730.22L416.92 730.13L417.7 730.01L418.47 729.87L419.25 729.68L420.02 729.47L420.79 729.22L421.56 728.95L499.67 698.57L499.23 698.92L498.63 699.46L498.04 700.02L307.74 890.31L299.84 886.02L285.56 877.53L271.65 868.52L258.12 858.98L244.97 848.95L232.23 838.43L219.9 827.44L208 815.99L196.55 804.1L185.56 791.77L175.04 779.03L165.01 765.88L155.48 752.34L146.46 738.43L137.97 724.16L130.03 709.53L122.63 694.58L115.81 679.3L109.58 663.72L103.94 647.85L98.91 631.69L94.51 615.28L90.74 598.61L87.63 581.7L85.19 564.58L83.43 547.24L82.36 529.71L82 511.99L82.36 494.28L83.43 476.75L85.19 459.41L87.63 442.29L90.74 425.38L94.51 408.71L98.91 392.3L103.94 376.14L109.58 360.27L115.81 344.69L122.63 329.41L130.03 314.46L137.97 299.83L146.46 285.56L155.48 271.65L165.01 258.11L175.04 244.96L185.56 232.22L196.55 219.89L208 208L219.9 196.55L232.23 185.56L244.97 175.04L258.12 165.01L271.65 155.47L285.56 146.46L299.84 137.97L314.46 130.02L329.42 122.63L344.69 115.81L360.27 109.57L376.15 103.93L392.3 98.9L408.72 94.5L425.39 90.74L442.29 87.63L459.42 85.18L476.75 83.42L494.29 82.35L512 82L529.71 82.35L547.24 83.42Z"/></defs><g><g><g><use fill="#fafafa" fill-opacity="1" opacity="1" xlink:href="#eyIqWLiIE"/></g><g><use fill="#6f42c1" fill-opacity="1" opacity="1" xlink:href="#a1YEx0O0qC"/></g></g></g></svg>