<svg xmlns="http://www.w3.org/2000/svg" xmlns:xlink="http://www.w3.org/1999/xlink" width="640" height="640" preserveAspectRatio="xMidYMid meet" version="1.1" viewBox="0 0 640 640"><defs><path id="b28sVq8toS" d="M520 320C520 430.38 430.38 520 320 520C209.62 520 120 430.38 120 320C120 209.62 209.62 120 320 120C430.38 120 520 209.62 520 320Z"/><path id="d1CUsySoRV" d="M-172.65 1040.13L320 520L-520 832.08L-172.65 1040.13Z"/><path id="aLD79g43y" d="M234.17 251.83C204.83 286.93 170.17 306.36 156.83 295.2C143.48 284.05 156.48 246.49 185.83 211.4C215.17 176.3 249.83 156.87 263.17 168.03C276.52 179.18 263.52 216.73 234.17 251.83Z"/><path id="b4VzuGI2WE" d="M60.11 810.58L318.77 520L-194.14 862.96L60.11 810.58Z"/><path id="k71X66Hrze" d="M462.39 178.61L467.72 184.14L472.83 189.87L477.72 195.8L482.39 201.91L486.82 208.21L491.02 214.68L494.97 221.32L498.66 228.12L502.1 235.08L505.27 242.18L508.17 249.43L510.8 256.81L513.14 264.33L515.18 271.96L516.93 279.71L518.38 287.58L519.52 295.54L520.34 303.61L520.83 311.76L521 320L520.83 328.24L520.34 336.39L519.52 344.46L518.38 352.42L516.93 360.29L515.18 368.04L513.14 375.67L510.8 383.19L508.17 390.57L505.27 397.82L502.1 404.92L498.66 411.88L494.97 418.68L491.02 425.32L486.82 431.79L482.39 438.09L477.72 444.2L472.83 450.13L467.72 455.86L462.39 461.39L456.86 466.72L451.13 471.83L445.2 476.72L439.09 481.39L432.79 485.82L426.32 490.02L419.68 493.97L412.88 497.66L405.92 501.1L398.82 504.27L391.57 507.17L384.19 509.8L376.67 512.14L369.04 514.18L361.29 515.93L353.42 517.38L345.46 518.52L337.39 519.34L329.24 519.83L321 520L312.76 519.83L304.61 519.34L296.54 518.52L288.58 517.38L280.71 515.93L272.96 514.18L265.33 512.14L257.81 509.8L250.43 507.17L243.18 504.27L236.08 501.1L229.12 497.66L222.32 493.97L215.68 490.02L209.21 485.82L202.91 481.39L196.8 476.72L190.87 471.83L185.14 466.72L179.61 461.39L174.28 455.86L169.5 450.5L169.87 450.83L175.8 455.72L181.91 460.39L188.21 464.82L194.68 469.02L201.32 472.97L208.12 476.66L215.08 480.1L222.18 483.27L229.43 486.17L236.81 488.8L244.33 491.14L251.96 493.18L259.71 494.93L267.58 496.38L275.54 497.52L283.61 498.34L291.76 498.83L300 499L308.24 498.83L316.39 498.34L324.46 497.52L332.42 496.38L340.29 494.93L348.04 493.18L355.67 491.14L363.19 488.8L370.57 486.17L377.82 483.27L384.92 480.1L391.88 476.66L398.68 472.97L405.32 469.02L411.79 464.82L418.09 460.39L424.2 455.72L430.13 450.83L435.86 445.72L441.39 440.39L446.72 434.86L451.83 429.13L456.72 423.2L461.39 417.09L465.82 410.79L470.02 404.32L473.97 397.68L477.66 390.88L481.1 383.92L484.27 376.82L487.17 369.57L489.8 362.19L492.14 354.67L494.18 347.04L495.93 339.29L497.38 331.42L498.52 323.46L499.34 315.39L499.83 307.24L500 299L499.83 290.76L499.34 282.61L498.52 274.54L497.38 266.58L495.93 258.71L494.18 250.96L492.14 243.33L489.8 235.81L487.17 228.43L484.27 221.18L481.1 214.08L477.66 207.12L473.97 200.32L470.02 193.68L465.82 187.21L461.39 180.91L456.72 174.8L451.83 168.87L451.5 168.5L456.86 173.28L462.39 178.61Z"/></defs><g><g><g><use fill="#3f51b5" fill-opacity="1" opacity="1" xlink:href="#b28sVq8toS"/></g><g><use fill="#3f51b5" fill-opacity="1" opacity="1" xlink:href="#d1CUsySoRV"/><g><use fill-opacity="0" stroke="#000" stroke-opacity="1" stroke-width="0" opacity="1" xlink:href="#d1CUsySoRV"/></g></g><g><use fill="#7186fc" fill-opacity="1" opacity="1" xlink:href="#aLD79g43y"/></g><g><use fill="#2b3778" fill-opacity="1" opacity="1" xlink:href="#b4VzuGI2WE"/><g><use fill-opacity="0" stroke="#000" stroke-opacity="1" stroke-width="0" opacity="1" xlink:href="#b4VzuGI2WE"/></g></g><g><use fill="#2b3778" fill-opacity="1" opacity="1" xlink:href="#k71X66Hrze"/></g></g></g></svg>